<svg aria-hidden="true" style="width:0;height:0;position:absolute;overflow:hidden" xmlns="http://www.w3.org/2000/svg"><defs><symbol id="icon-search-rounded" viewBox="0 0 32 32"><path d="M25.2 27.067 17.733 19.6q-1 .8-2.3 1.267t-2.767.467q-3.633 0-6.149-2.516Q4 16.301 4 12.667t2.517-6.151Q9.033 4 12.666 4t6.151 2.516q2.516 2.517 2.516 6.151 0 1.467-.467 2.767t-1.267 2.3l7.5 7.5q.367.367.367.9t-.4.933q-.367.367-.933.367t-.933-.367zm-12.533-8.4q2.5 0 4.251-1.749 1.749-1.751 1.749-4.251t-1.749-4.251q-1.751-1.749-4.251-1.749T8.416 8.416q-1.749 1.751-1.749 4.251t1.749 4.251q1.751 1.749 4.251 1.749z"/></symbol></defs></svg>