<svg aria-hidden="true" style="position: absolute; width: 0; height: 0; overflow: hidden;" version="1.1" xmlns="http://www.w3.org/2000/svg" xmlns:xlink="http://www.w3.org/1999/xlink">
<defs>
<symbol id="icon-search-rounded" viewBox="0 0 32 32">
<path d="M25.2 27.067l-7.467-7.467q-1 0.8-2.3 1.267t-2.767 0.467q-3.633 0-6.149-2.516-2.517-2.517-2.517-6.151t2.517-6.151q2.516-2.516 6.149-2.516t6.151 2.516q2.516 2.517 2.516 6.151 0 1.467-0.467 2.767t-1.267 2.3l7.5 7.5q0.367 0.367 0.367 0.9t-0.4 0.933q-0.367 0.367-0.933 0.367t-0.933-0.367zM12.667 18.667q2.5 0 4.251-1.749 1.749-1.751 1.749-4.251t-1.749-4.251q-1.751-1.749-4.251-1.749t-4.251 1.749q-1.749 1.751-1.749 4.251t1.749 4.251q1.751 1.749 4.251 1.749z"></path>
</symbol>
</defs>
</svg>
